# xmcd
#
# Track frame offsets:
# 150
# 24048
# 41051
# 62290
# 88819
# 111914
# 130589
# 146279
# 161068
# 180003
# 194379
#
# Disc length: 2923 seconds
#
#
# Revision: 0
# Processed by: cddbd v1.5.1PL2 Copyright (c) Steve Scherf et al.
# Submitted via: FreeRIP 2.944 
#
DISCID=810b690b
DTITLE=Field of Blue - still
DYEAR=2000
DGENRE=Jazz
TTITLE0=Ain't necessarily so
TTITLE1=Tell me who you are
TTITLE2=Fruit tree
TTITLE3=Day after day
TTITLE4=Feather
TTITLE5=Change your mind
TTITLE6=The blues don't really care
TTITLE7=Journey to your heart
TTITLE8=Every dog must have his day
TTITLE9=Free falling
TTITLE10=Still not ready
EXTD=
EXTT0=
EXTT1=
EXTT2=
EXTT3=
EXTT4=
EXTT5=
EXTT6=
EXTT7=
EXTT8=
EXTT9=
EXTT10=
PLAYORDER=
